<?xml version="1.0" standalone="no"?>
<!DOCTYPE svg PUBLIC "-//W3C//DTD SVG 20010904//EN"
 "http://www.w3.org/TR/2001/REC-SVG-20010904/DTD/svg10.dtd">
<svg version="1.0" xmlns="http://www.w3.org/2000/svg"
 width="540.000000pt" height="540.000000pt" viewBox="0 0 540.000000 540.000000"
 preserveAspectRatio="xMidYMid meet">

<g transform="translate(0.000000,540.000000) scale(0.100000,-0.100000)"
fill="#000000" stroke="none">
<path d="M2355 3295 c-47 -16 -91 -65 -105 -115 -5 -19 -10 -120 -10 -225 0
-216 11 -257 72 -295 45 -27 118 -27 143 0 29 32 10 72 -40 85 -68 17 -65 8
-65 214 0 173 2 190 20 214 l20 25 223 3 c236 4 257 8 257 51 0 11 -5 28 -10
39 -10 18 -23 19 -238 19 -169 -1 -237 -4 -267 -15z"/>
<path d="M3016 3294 c-21 -20 -20 -58 0 -75 9 -7 34 -15 57 -18 54 -8 57 -20
50 -247 -6 -174 -7 -186 -27 -199 -15 -9 -90 -14 -255 -19 -153 -4 -239 -10
-248 -18 -23 -19 -12 -71 17 -83 16 -7 112 -9 267 -5 l241 5 39 31 c69 55 73
72 73 314 0 241 -5 263 -70 308 -40 27 -120 31 -144 6z"/>
<path d="M1462 2388 c3 -7 21 -14 41 -16 l36 -3 3 -121 c2 -86 7 -123 16 -126
9 -3 12 26 12 122 l0 126 40 0 c29 0 40 4 40 15 0 12 -17 15 -96 15 -72 0 -95
-3 -92 -12z"/>
<path d="M1830 2260 c0 -87 4 -140 10 -140 6 0 10 27 10 60 0 60 0 60 30 60
24 0 36 -9 60 -42 54 -78 58 -83 65 -76 9 9 -55 118 -70 118 -5 1 3 12 20 25
22 19 29 32 29 61 0 52 -30 74 -100 74 l-54 0 0 -140z m118 98 c17 -17 15 -54
-4 -72 -9 -9 -32 -16 -55 -16 l-39 0 0 50 0 50 43 0 c24 0 48 -5 55 -12z"/>
<path d="M2190 2288 c1 -73 5 -119 13 -129 40 -53 132 -51 167 4 8 14 15 63
18 130 4 94 3 107 -12 107 -14 0 -16 -14 -16 -97 0 -114 -12 -146 -54 -151
-78 -9 -96 20 -96 153 0 57 -4 95 -10 95 -6 0 -10 -44 -10 -112z"/>
<path d="M2603 2385 c-16 -11 -23 -26 -23 -50 0 -35 13 -50 90 -98 39 -25 48
-50 29 -74 -10 -11 -26 -14 -66 -11 -38 3 -53 1 -53 -8 0 -27 74 -33 119 -9
59 30 46 97 -27 134 -55 28 -76 55 -63 79 14 26 44 36 88 27 27 -5 34 -3 31 7
-7 20 -98 22 -125 3z"/>
<path d="M2900 2385 c0 -11 11 -15 40 -15 l40 0 0 -125 c0 -77 4 -125 10 -125
6 0 10 48 10 125 l0 125 40 0 c29 0 40 4 40 15 0 12 -17 15 -90 15 -73 0 -90
-3 -90 -15z"/>
<path d="M3500 2260 c0 -82 4 -140 10 -140 5 0 10 28 12 63 l3 62 48 3 c26 2
47 7 47 12 0 5 -21 10 -47 12 l-48 3 -3 48 -3 47 55 0 c43 0 56 3 56 15 0 12
-14 15 -65 15 l-65 0 0 -140z"/>
<path d="M3814 2387 c-2 -7 -3 -69 -2 -137 2 -88 7 -125 16 -128 9 -3 12 29
12 137 0 90 -4 141 -10 141 -6 0 -13 -6 -16 -13z"/>
</g>
</svg>
