<?xml version="1.0" standalone="no"?>
<!DOCTYPE svg PUBLIC "-//W3C//DTD SVG 20010904//EN"
 "http://www.w3.org/TR/2001/REC-SVG-20010904/DTD/svg10.dtd">
<svg version="1.0" xmlns="http://www.w3.org/2000/svg"
 width="540.000000pt" height="540.000000pt" viewBox="0 0 540.000000 540.000000"
 preserveAspectRatio="xMidYMid meet">

<g transform="translate(0.000000,540.000000) scale(0.100000,-0.100000)"
fill="#000000" stroke="none">
<path d="M3685 3660 c-172 -35 -256 -148 -271 -364 -12 -166 14 -290 127 -610
72 -203 89 -279 89 -395 0 -102 -19 -177 -62 -239 -38 -54 -102 -102 -140
-102 -15 0 -28 -5 -28 -10 0 -14 55 -4 129 21 196 67 275 306 200 603 -11 43
-49 158 -84 255 -96 269 -99 282 -100 466 0 145 2 165 23 218 29 71 87 134
131 143 17 4 34 11 37 15 6 10 5 10 -51 -1z"/>
<path d="M1270 3634 c0 -17 11 -59 180 -669 50 -181 132 -476 181 -654 49
-178 91 -326 93 -328 6 -7 -9 -66 252 997 46 190 88 354 93 365 9 21 21 -16
81 -240 18 -66 45 -165 60 -220 16 -55 76 -278 135 -495 59 -217 110 -398 114
-403 4 -4 22 54 39 130 17 76 76 329 132 563 56 234 123 520 150 635 27 116
55 238 64 273 8 34 11 62 6 62 -4 0 -24 -69 -44 -152 -90 -384 -256 -1092
-276 -1181 -12 -55 -26 -95 -30 -90 -4 4 -36 118 -70 253 -34 135 -79 310 -99
390 -21 80 -73 286 -116 458 -43 171 -81 312 -85 312 -5 0 -76 -282 -266
-1060 -42 -173 -80 -319 -84 -323 -9 -10 -16 13 -95 298 -29 105 -87 314 -130
465 -42 151 -96 346 -120 432 -24 87 -49 166 -55 178 -14 27 -110 30 -110 4z"/>
<path d="M3000 2057 c-19 -9 -26 -22 -28 -48 -4 -44 17 -69 58 -69 36 0 60 23
60 59 0 52 -45 81 -90 58z"/>
<path d="M3113 1605 c0 -33 2 -45 4 -27 2 18 2 45 0 60 -2 15 -4 0 -4 -33z"/>
<path d="M3233 1605 c0 -33 2 -45 4 -27 2 18 2 45 0 60 -2 15 -4 0 -4 -33z"/>
<path d="M3568 1653 c12 -2 32 -2 45 0 12 2 2 4 -23 4 -25 0 -35 -2 -22 -4z"/>
<path d="M3330 1641 c0 -5 7 -12 16 -15 14 -5 15 -4 4 9 -14 17 -20 19 -20 6z"/>
<path d="M3640 1646 c0 -2 8 -10 18 -17 15 -13 16 -12 3 4 -13 16 -21 21 -21
13z"/>
<path d="M2002 1580 c0 -14 2 -19 5 -12 2 6 2 18 0 25 -3 6 -5 1 -5 -13z"/>
<path d="M3385 1580 c10 -11 20 -20 23 -20 3 0 -3 9 -13 20 -10 11 -20 20 -23
20 -3 0 3 -9 13 -20z"/>
<path d="M3420 1536 c0 -2 7 -9 15 -16 9 -7 15 -8 15 -2 0 5 -7 12 -15 16 -8
3 -15 4 -15 2z"/>
<path d="M3649 1523 c-13 -16 -12 -17 4 -4 9 7 17 15 17 17 0 8 -8 3 -21 -13z"/>
</g>
</svg>
